<?xml version="1.0" encoding="UTF-8"?> <!-- Generator: Adobe Illustrator 23.1.1, SVG Export Plug-In . SVG Version: 6.00 Build 0) --> <svg xmlns="http://www.w3.org/2000/svg" xmlns:xlink="http://www.w3.org/1999/xlink" version="1.1" x="0px" y="0px" viewBox="0 0 537.7 240.2" style="enable-background:new 0 0 537.7 240.2;" xml:space="preserve"> <style type="text/css"> .st0{fill:#FFFFFF;} .st1{opacity:0.4;fill:#B3C022;} .st2{opacity:0.7;fill:#B3C022;} .st3{fill:#B3C022;} .st4{opacity:0.6;fill:#B3C022;} </style> <g id="TAG"> <g> <path class="st0" d="M132.9,190.9c1,1.5,2.7,2.2,4.3,2.2c1.8,0,4-1.1,4-3.4c0-4.6-9.9-1.8-9.9-9.6c0-2.4,2-5.6,6.8-5.6 c2.2,0,4.3,0.5,5.8,2.3l-2.2,2c-0.7-1.1-2-1.8-3.6-1.8c-3,0-3.9,1.8-3.9,3.1c0,5.1,9.9,2.1,9.9,9.3c0,3.9-3.1,6.2-7,6.2 c-2.6,0-5.1-0.9-6.4-2.8L132.9,190.9z"></path> <path class="st0" d="M154.1,177.5h-6.5V175h15.7v2.6h-6.5v17.6h-2.7V177.5z"></path> <path class="st0" d="M168,175h7.1c5.2,0,6.5,3.1,6.5,5.6c0,2.6-1.9,5-5,5.3l5.7,9.2h-3.4l-5.1-8.9h-3v8.9H168V175z M170.7,183.9 h3.6c2.2,0,4.3-0.5,4.3-3.2s-2.2-3.2-4.3-3.2h-3.6V183.9z"></path> <path class="st0" d="M187.1,175h13v2.6h-10.3v6h9.6v2.6h-9.6v6.5h10.8v2.6h-13.5V175z"></path> <path class="st0" d="M206.2,175h3.6l11.1,16.6h0.1V175h2.7v20.2h-3.5L209,178.6h-0.1v16.6h-2.7V175z"></path> <path class="st0" d="M247.8,183.9v9.9c-2,1.2-5.2,1.9-7.6,1.9c-6.8,0-10.8-4.9-10.8-10.6c0-6,4.4-10.6,10.5-10.6 c3.7,0,6,1,7.5,2.6l-1.9,2.1c-1.7-1.6-3.6-2.1-5.6-2.1c-4.6,0-7.6,3.6-7.6,8c0,4.6,3.4,8,7.8,8c1.9,0,3.7-0.4,5-1.1v-5.6h-4.5 v-2.6H247.8z"></path> <path class="st0" d="M258.7,177.5h-6.5V175h15.7v2.6h-6.5v17.6h-2.7V177.5z"></path> <path class="st0" d="M272.5,175h2.7v8.4h10.5V175h2.7v20.2h-2.7v-9.2h-10.5v9.2h-2.7V175z"></path> <path class="st0" d="M295.4,175h13v2.6h-10.3v6h9.6v2.6h-9.6v6.5h10.8v2.6h-13.5V175z"></path> <path class="st0" d="M314.5,175h3.6l11.1,16.6h0.1V175h2.7v20.2h-3.5l-11.2-16.6h-0.1v16.6h-2.7V175z"></path> <path class="st0" d="M338.9,175h2.7v20.2h-2.7V175z"></path> <path class="st0" d="M348.5,175h3.6l11.1,16.6h0.1V175h2.7v20.2h-3.5l-11.2-16.6h-0.1v16.6h-2.7V175z"></path> <path class="st0" d="M390.1,183.9v9.9c-2,1.2-5.2,1.9-7.6,1.9c-6.8,0-10.8-4.9-10.8-10.6c0-6,4.4-10.6,10.5-10.6 c3.7,0,6,1,7.5,2.6l-1.9,2.1c-1.7-1.6-3.6-2.1-5.6-2.1c-4.6,0-7.6,3.6-7.6,8c0,4.6,3.4,8,7.8,8c1.9,0,3.7-0.4,5-1.1v-5.6h-4.5 v-2.6H390.1z"></path> <path class="st0" d="M406.4,175h2.7v8.4h10.5V175h2.7v20.2h-2.7v-9.2h-10.5v9.2h-2.7V175z"></path> <path class="st0" d="M429.3,175h13v2.6H432v6h9.6v2.6H432v6.5h10.8v2.6h-13.5V175z"></path> <path class="st0" d="M454.7,175h2.5l8.6,20.2h-3.2l-2-5H451l-2,5h-3.2L454.7,175z M459.6,187.8l-3.8-9.3h-0.1l-3.8,9.3H459.6z"></path> <path class="st0" d="M470.2,175h2.7v17.6h9.3v2.6h-12V175z"></path> <path class="st0" d="M488.3,177.5h-6.5V175h15.7v2.6H491v17.6h-2.7V177.5z"></path> <path class="st0" d="M502.1,175h2.7v8.4h10.5V175h2.7v20.2h-2.7v-9.2h-10.5v9.2h-2.7V175z"></path> <path class="st0" d="M526,198.9h-2.3l2-7h2.8L526,198.9z"></path> <path class="st0" d="M132.9,219.4c1,1.5,2.7,2.2,4.3,2.2c1.8,0,4-1.1,4-3.4c0-4.6-9.9-1.8-9.9-9.6c0-2.4,2-5.6,6.8-5.6 c2.2,0,4.3,0.5,5.8,2.3l-2.2,2c-0.7-1.1-2-1.8-3.6-1.8c-3,0-3.9,1.8-3.9,3.1c0,5.1,9.9,2.1,9.9,9.3c0,3.9-3.1,6.2-7,6.2 c-2.6,0-5.1-0.9-6.4-2.8L132.9,219.4z"></path> <path class="st0" d="M149.9,203.5h13v2.6h-10.3v6h9.6v2.6h-9.6v6.5h10.8v2.6h-13.5V203.5z"></path> <path class="st0" d="M183.1,207.8c-1.1-1.5-3-2.3-4.9-2.3c-4.5,0-7.5,3.6-7.5,8.2c0,4.2,2.8,7.9,7.5,7.9c2.3,0,4.1-1,5.3-2.7 l2.3,1.7c-0.6,0.8-3,3.5-7.6,3.5c-6.4,0-10.4-5.4-10.4-10.4c0-6.3,4.3-10.8,10.5-10.8c2.7,0,5.4,1,7.1,3.1L183.1,207.8z"></path> <path class="st0" d="M193.1,203.5v12.4c0,2.5,1.3,5.8,5.1,5.8s5.1-3.2,5.1-5.8v-12.4h2.7v12.8c0,4.7-3.4,7.9-7.8,7.9 s-7.8-3.2-7.8-7.9v-12.8H193.1z"></path> <path class="st0" d="M212.6,203.5h7.1c5.2,0,6.5,3.1,6.5,5.6c0,2.6-1.9,5-5,5.3l5.7,9.2h-3.4l-5.1-8.9h-3v8.9h-2.7V203.5z M215.3,212.4h3.6c2.2,0,4.3-0.5,4.3-3.2s-2.2-3.2-4.3-3.2h-3.6V212.4z"></path> <path class="st0" d="M231.7,203.5h2.7v20.2h-2.7V203.5z"></path> <path class="st0" d="M241.3,203.5h3.6l11.1,16.6h0.1v-16.6h2.7v20.2h-3.5l-11.2-16.6H244v16.6h-2.7V203.5z"></path> <path class="st0" d="M282.9,212.4v9.9c-2,1.2-5.2,1.9-7.6,1.9c-6.8,0-10.8-4.9-10.8-10.6c0-6,4.4-10.6,10.5-10.6 c3.7,0,6,1,7.5,2.6l-1.9,2.1c-1.7-1.6-3.6-2.1-5.6-2.1c-4.6,0-7.6,3.6-7.6,8c0,4.6,3.4,8,7.8,8c1.9,0,3.7-0.4,5-1.1v-5.6h-4.5 v-2.6H282.9z"></path> <path class="st0" d="M296.7,203.5h2.9l4.4,16.1h0.1l4.8-16.1h3.1l4.8,16.1h0.1l4.4-16.1h2.9l-5.9,20.2h-2.9l-4.9-16.5h-0.1 l-4.9,16.5h-2.9L296.7,203.5z"></path> <path class="st0" d="M328.3,203.5h13v2.6h-10.3v6h9.6v2.6h-9.6v6.5h10.8v2.6h-13.5V203.5z"></path> <path class="st0" d="M347.5,203.5h2.7v17.6h9.3v2.6h-12V203.5z"></path> <path class="st0" d="M364,203.5h2.7v17.6h9.3v2.6h-12V203.5z"></path> <path class="st0" d="M380.5,203.5h3.6l11.1,16.6h0.1v-16.6h2.7v20.2h-3.5l-11.2-16.6h-0.1v16.6h-2.7V203.5z"></path> <path class="st0" d="M404.9,203.5h13v2.6h-10.3v6h9.6v2.6h-9.6v6.5h10.8v2.6h-13.5V203.5z"></path> <path class="st0" d="M424.6,219.4c1,1.5,2.7,2.2,4.3,2.2c1.8,0,4-1.1,4-3.4c0-4.6-9.9-1.8-9.9-9.6c0-2.4,2-5.6,6.8-5.6 c2.2,0,4.3,0.5,5.8,2.3l-2.2,2c-0.7-1.1-2-1.8-3.6-1.8c-3,0-3.9,1.8-3.9,3.1c0,5.1,9.9,2.1,9.9,9.3c0,3.9-3.1,6.2-7,6.2 c-2.6,0-5.1-0.9-6.4-2.8L424.6,219.4z"></path> <path class="st0" d="M442.1,219.4c1,1.5,2.7,2.2,4.3,2.2c1.8,0,4-1.1,4-3.4c0-4.6-9.9-1.8-9.9-9.6c0-2.4,2-5.6,6.8-5.6 c2.2,0,4.3,0.5,5.8,2.3l-2.2,2c-0.7-1.1-2-1.8-3.6-1.8c-3,0-3.9,1.8-3.9,3.1c0,5.1,9.9,2.1,9.9,9.3c0,3.9-3.1,6.2-7,6.2 c-2.6,0-5.1-0.9-6.4-2.8L442.1,219.4z"></path> </g> </g> <g id="HYACINTH"> <path class="st1" d="M108.3,79.3c4.8,0,8.7-3.9,8.7-8.7c0-4.8-3.9-8.7-8.7-8.7c-4.8,0-8.7,3.9-8.7,8.7 C99.6,75.4,103.5,79.3,108.3,79.3z"></path> <path class="st2" d="M112.5,47.5c2.5,0,4.6-2,4.6-4.6c0-2.5-2-4.6-4.6-4.6c-2.5,0-4.6,2-4.6,4.6C107.9,45.4,110,47.5,112.5,47.5z"></path> <ellipse transform="matrix(2.213722e-03 -1 1 2.213722e-03 36.3825 147.1112)" class="st3" cx="91.9" cy="55.3" rx="7.2" ry="7.2"></ellipse> <path class="st3" d="M125.9,60.7c3.4,0,6.1-2.7,6.1-6.1c0-3.4-2.7-6.1-6.1-6.1c-3.4,0-6.1,2.7-6.1,6.1 C119.8,58,122.6,60.7,125.9,60.7z"></path> <path class="st1" d="M100.7,54.1c7.4,0,13.3-6,13.3-13.3c0-7.4-6-13.3-13.3-13.3c-7.4,0-13.3,6-13.3,13.3 C87.3,48.1,93.3,54.1,100.7,54.1z"></path> <circle class="st4" cx="114" cy="64.3" r="5.3"></circle> <g> <path class="st0" d="M3.1,157.3c0.2-4.5,0.3-28.5,0.3-31.2V115c0-1.7-0.3-27.7-0.5-30.1h18.5c-0.2,1.8-0.5,22.1-0.5,24v5.6 l34.5-1.9v-5.8c0-1.7-0.2-19.6-0.4-21.8h18.4c-0.2,2.5-0.5,30.8-0.5,33.2v10.3c0,1.3,0.2,27,0.4,28.9H54.7 c0.2-3.5,0.5-20.8,0.5-22.8v-8.9l-34.5,1.9v4.8c0,4.6,0.3,22.6,0.4,24.9H3.1z"></path> </g> <g> <path class="st0" d="M448.7,157.3c0.2-4.5,0.3-28.5,0.3-31.2V115c0-1.7-0.3-27.7-0.5-30.1h18.5c-0.2,1.8-0.5,22.1-0.5,24v5.6 l34.4-1.9v-5.8c0-1.7-0.2-19.6-0.4-21.8h18.4c-0.2,2.5-0.5,30.8-0.5,33.2v10.3c0,1.3,0.2,27,0.4,28.9h-18.4 c0.2-3.5,0.5-20.8,0.5-22.8v-8.9l-34.4,1.9v4.8c0,4.6,0.3,22.6,0.4,24.9H448.7z"></path> </g> <g> <path class="st0" d="M398.5,157.3c0.3-2.7,0.4-23.6,0.4-36.8V98.3c-7.7,0-22.3,0.5-25.4,0.8V84.9c4.6,0.6,28.9,1,30,1h8.9 c1.9,0,24.3-0.4,29.3-1v14.3c-1.9-0.3-20.9-0.8-25.4-0.8v23.8c0,14.8,0.5,33.1,0.7,35.2H398.5z"></path> </g> <g> <path class="st0" d="M294.2,157.3c0.3-3.8,1.1-19.3,1.9-35.4c0.8-16.1,1.6-32.9,2-39.1c0,0,48.2,42.4,51.5,45.6 c0-4.2,0.3-40.1,0.4-44.1l16.2,0.5c-0.4,5.9-1.2,19.9-1.9,34.7c-0.8,14.8-1.4,30.2-1.7,39.5c0,0-50.2-43.8-51.5-45.6 c0,0-0.7,41.2-0.6,44.6L294.2,157.3z"></path> </g> <g> <path class="st0" d="M267.7,157.3c0.2-4.5,0.3-28.5,0.3-31.2V115c0-1.7-0.3-27.7-0.4-30.1h18.3c-0.1,1.8-0.4,18-0.4,30.3v11.1 c0,10.3,0.3,28.6,0.4,31H267.7z"></path> </g> <g> <path class="st0" d="M260.7,158c-3.4,0.5-7.5,0.9-12.8,0.9c-34.2,0-45.1-18.7-45.1-30.7c0-16.9,15.5-37.8,51.2-45l3.3,15.4 c-22.4,3.4-35.5,14.7-35.5,27.4c0,9.8,9.1,18.5,27.3,18.5c4.1,0,7.8-0.4,10.7-0.9L260.7,158z"></path> </g> <g> <path class="st0" d="M120.7,148.7c4.1-7.2,40.3-67.5,40.3-67.5s37.6,58.7,42.9,66.6l-15.6,9.4c-2.6-4.6-10-18.6-11.2-20.1 l-32.8,1.5c-0.9,2-6.4,14.4-8.6,18.7L120.7,148.7z M171.8,128.5c-2.2-4.3-9.6-18.3-11.2-21.4c-2.1,4-9,18.5-11,22.5L171.8,128.5z"></path> </g> <path class="st4" d="M129.2,44.8c4,0,7.2-3.2,7.2-7.2c0-4-3.2-7.2-7.2-7.2c-4,0-7.2,3.2-7.2,7.2C122,41.6,125.2,44.8,129.2,44.8z"></path> <path class="st2" d="M115,24.2c5.4,0,9.7-4.3,9.7-9.7c0-5.4-4.4-9.7-9.7-9.7c-5.4,0-9.7,4.4-9.7,9.7 C105.3,19.8,109.7,24.2,115,24.2z"></path> <path class="st1" d="M118.5,28.1c2.9,0,5.2-2.3,5.2-5.2c0-2.9-2.3-5.2-5.2-5.2c-2.9,0-5.2,2.3-5.2,5.2 C113.3,25.8,115.6,28.1,118.5,28.1z"></path> <circle class="st3" cx="100.7" cy="20.3" r="3.8"></circle> <path class="st0" d="M150.7,60.2c-8.4,2.7-20.1,11-26.1,17.7c-7.3,8.3-12.5,16.2-16.4,27.4c-3.9-11.3-9.1-19.1-16.4-27.4 c-6-6.7-17.7-14.9-26.1-17.7l-6.8,9.6c8.7,2.6,21,9.9,28.6,18.7c9.2,10.6,14.1,25.1,14.1,39.5v12.8c0,1.9-0.4,80-0.7,82.7h12.9 c-0.3-2.7-0.7-80.8-0.7-82.7v-12.8c0-14.4,6.4-28.9,15.6-39.5c7.6-8.8,20-16.1,28.6-18.7L150.7,60.2z"></path> </g> </svg> 